<?xml version="1.0" encoding="utf-8"?>
<!-- Generator: Adobe Illustrator 24.0.0, SVG Export Plug-In . SVG Version: 6.00 Build 0)  -->
<svg version="1.1" id="Layer_1" xmlns="http://www.w3.org/2000/svg" xmlns:xlink="http://www.w3.org/1999/xlink" x="0px" y="0px"
	 viewBox="0 0 638 155.5" style="enable-background:new 0 0 638 155.5;" xml:space="preserve">
<style type="text/css">
	.st0{display:none;fill:#FFC600;}
	.st1{display:none;}
	.st2{display:inline;fill:#FFFFFF;}
</style>
<path class="st0" d="M77.8,0C34.9,0,0,34.8,0,77.7s34.9,77.8,77.8,77.8s77.8-34.9,77.8-77.8C155.5,34.9,120.7,0,77.8,0z M39.3,50.4
	l11.3-19.6c0.6-1,1.6-1.6,2.8-1.6h22.7c1.1,0,2.2,0.6,2.8,1.6l11.3,19.4c0.6,1,0.6,2.2,0,3.2L79,73c-0.6,1-1.6,1.6-2.8,1.6H53.5
	c-1.1,0-2.2-0.6-2.8-1.6L39.4,53.8C38.8,52.6,38.8,51.4,39.3,50.4z M75.5,52.3l11.3-19.6c0.6-1,1.6-1.6,2.8-1.6h22.7
	c1.1,0,2.2,0.6,2.8,1.6l11.3,19.4c0.6,1,0.6,2.2,0,3.2l-11.2,19.6c-0.6,1-1.6,1.6-2.8,1.6H89.7c-1.1,0-2.2-0.6-2.8-1.6L75.6,55.8
	C75,54.5,75,53.3,75.5,52.3z M75.5,102.2l11.3-19.6c0.6-1,1.6-1.6,2.8-1.6h22.7c1.1,0,2.2,0.6,2.8,1.6l11.3,19.4
	c0.6,1,0.6,2.2,0,3.2l-11.2,19.6c-0.6,1-1.6,1.6-2.8,1.6H89.7c-1.1,0-2.2-0.6-2.8-1.6l-11.3-19.2C75,104.3,75,103.2,75.5,102.2z
	 M90.3,105.3L79,124.7c-0.6,1-1.6,1.6-2.8,1.6H53.5c-1.1,0-2.2-0.6-2.8-1.6l-11.3-19.2c-0.6-1-0.6-2.2,0-3.2l11.2-19.7
	c0.6-1,1.6-1.6,2.8-1.6h22.7c1.1,0,2.2,0.6,2.8,1.6L90.2,102C90.9,103.1,90.9,104.3,90.3,105.3z"/>
<g class="st1">
	<path class="st2" d="M204.2,117.3V15.5H224V100h51.9v17.4L204.2,117.3L204.2,117.3z"/>
	<path class="st2" d="M344.9,118.7c-6.1,0-11.6-1.1-16.5-3.2s-9-4.9-12.4-8.5s-6-7.7-7.8-12.4c-1.8-4.7-2.7-9.6-2.7-14.8
		c0-5.3,0.9-10.2,2.7-14.9c1.8-4.7,4.4-8.8,7.8-12.4c3.4-3.6,7.5-6.4,12.4-8.5s10.4-3.2,16.5-3.2s11.6,1.1,16.4,3.2
		c4.8,2.1,8.9,4.9,12.3,8.5s6,7.7,7.8,12.4s2.7,9.7,2.7,14.9c0,5.2-0.9,10.1-2.7,14.8c-1.8,4.7-4.4,8.8-7.7,12.4
		c-3.3,3.6-7.5,6.4-12.3,8.5C356.5,117.7,351,118.7,344.9,118.7z M325.3,79.9c0,3.3,0.5,6.4,1.5,9.1s2.4,5.1,4.2,7.1
		c1.8,2,3.8,3.6,6.2,4.7c2.4,1.1,5,1.6,7.7,1.6c2.8,0,5.4-0.5,7.7-1.6c2.4-1.1,4.5-2.7,6.2-4.7c1.8-2,3.2-4.4,4.2-7.2
		c1-2.8,1.5-5.8,1.5-9.2c0-3.2-0.5-6.3-1.5-9c-1-2.8-2.4-5.2-4.2-7.2c-1.8-2-3.9-3.6-6.2-4.7c-2.4-1.1-5-1.6-7.7-1.6
		c-2.8,0-5.4,0.6-7.7,1.7c-2.4,1.1-4.5,2.7-6.2,4.7c-1.8,2-3.2,4.4-4.2,7.2S325.3,76.6,325.3,79.9z"/>
	<path class="st2" d="M450.6,117.7c-5.1,0-9.7-1-13.8-3c-4.1-2-7.7-4.8-10.7-8.2c-3-3.5-5.3-7.5-7-12.1c-1.6-4.6-2.4-9.5-2.4-14.6
		c0-5.5,0.9-10.5,2.6-15.2s4.1-8.8,7.2-12.3s6.7-6.3,11-8.3s9-3,14.2-3c5.8,0,10.9,1.3,15.3,3.9c4.4,2.6,8,6.1,10.9,10.5V42.1h16.8
		v71.6c0,5.5-1.1,10.5-3.2,14.9s-5,8.1-8.7,11.2c-3.7,3.1-8.1,5.4-13.2,7s-10.7,2.4-16.7,2.4c-8.2,0-15.1-1.4-20.7-4.1
		c-5.6-2.7-10.4-6.6-14.4-11.5l10.5-10.2c2.9,3.5,6.5,6.3,10.8,8.3c4.4,2,9,3,13.8,3c3,0,5.8-0.4,8.5-1.2s5.1-2.1,7.2-3.8
		s3.8-3.9,4.9-6.6c1.2-2.7,1.8-5.8,1.8-9.5v-9.5c-2.5,4.3-6,7.6-10.5,10C460.6,116.6,455.8,117.7,450.6,117.7z M457.1,102.4
		c2.1,0,4.1-0.3,6-1s3.7-1.6,5.3-2.7c1.6-1.1,3.1-2.5,4.3-4c1.2-1.5,2.2-3.2,2.9-4.9v-18c-1.7-4.4-4.4-7.9-8.1-10.6
		c-3.7-2.7-7.5-4-11.5-4c-3,0-5.6,0.6-8,1.9c-2.4,1.3-4.4,3-6.2,5.2c-1.7,2.2-3,4.6-3.9,7.4s-1.4,5.6-1.4,8.6c0,3.1,0.5,5.9,1.6,8.6
		s2.5,5,4.4,7s4,3.6,6.5,4.7C451.4,101.8,454.1,102.4,457.1,102.4z"/>
	<path class="st2" d="M571,118.7c-6.1,0-11.6-1.1-16.5-3.2s-9-4.9-12.4-8.5s-6-7.7-7.8-12.4c-1.8-4.7-2.7-9.6-2.7-14.8
		c0-5.3,0.9-10.2,2.7-14.9s4.4-8.8,7.8-12.4c3.4-3.6,7.5-6.4,12.4-8.5s10.4-3.2,16.5-3.2s11.6,1.1,16.4,3.2
		c4.8,2.1,8.9,4.9,12.3,8.5c3.4,3.6,6,7.7,7.8,12.4s2.7,9.7,2.7,14.9c0,5.2-0.9,10.1-2.7,14.8c-1.8,4.7-4.4,8.8-7.7,12.4
		s-7.5,6.4-12.3,8.5C582.6,117.7,577.1,118.7,571,118.7z M551.3,79.9c0,3.3,0.5,6.4,1.5,9.1s2.4,5.1,4.2,7.1s3.8,3.6,6.2,4.7
		s5,1.6,7.7,1.6c2.8,0,5.4-0.5,7.7-1.6c2.4-1.1,4.5-2.7,6.2-4.7c1.8-2,3.2-4.4,4.2-7.2c1-2.8,1.5-5.8,1.5-9.2c0-3.2-0.5-6.3-1.5-9
		c-1-2.8-2.4-5.2-4.2-7.2c-1.8-2-3.9-3.6-6.2-4.7c-2.4-1.1-5-1.6-7.7-1.6c-2.8,0-5.4,0.6-7.7,1.7c-2.4,1.1-4.5,2.7-6.2,4.7
		c-1.8,2-3.2,4.4-4.2,7.2S551.3,76.6,551.3,79.9z"/>
</g>
<g id="P7uwHM.tif">
	
		<image style="overflow:visible;" width="709" height="162" id="Layer_1_1_" xlink:href="7694D13D4CF8E17D.png"  transform="matrix(0.5 0 0 0.5 141.75 37.25)">
	</image>
</g>
</svg>
