<?xml version="1.0" encoding="utf-8"?>
<!-- Generator: Adobe Illustrator 24.0.0, SVG Export Plug-In . SVG Version: 6.00 Build 0)  -->
<svg version="1.1" id="Layer_1" xmlns="http://www.w3.org/2000/svg" xmlns:xlink="http://www.w3.org/1999/xlink" x="0px" y="0px"
	 viewBox="0 0 638 155.5" style="enable-background:new 0 0 638 155.5;" xml:space="preserve">
<style type="text/css">
	.st0{display:none;fill:#FFC600;}
	.st1{display:none;}
	.st2{display:inline;fill:#333C4E;}
</style>
<path class="st0" d="M77.8,0C34.9,0,0,34.8,0,77.7s34.9,77.8,77.8,77.8s77.8-34.9,77.8-77.8C155.5,34.9,120.7,0,77.8,0z M39.3,50.4
	l11.3-19.6c0.6-1,1.6-1.6,2.8-1.6h22.7c1.1,0,2.2,0.6,2.8,1.6l11.3,19.4c0.6,1,0.6,2.2,0,3.2L79,73c-0.6,1-1.6,1.6-2.8,1.6H53.5
	c-1.1,0-2.2-0.6-2.8-1.6L39.4,53.8C38.8,52.6,38.8,51.4,39.3,50.4z M90.3,105.3L79,124.7c-0.6,1-1.6,1.6-2.8,1.6H53.5
	c-1.1,0-2.2-0.6-2.8-1.6l-11.3-19.2c-0.6-1-0.6-2.2,0-3.2l11.2-19.7c0.6-1,1.6-1.6,2.8-1.6h22.7c1.1,0,2.2,0.6,2.8,1.6L90.2,102
	C90.9,103.1,90.9,104.3,90.3,105.3z M124.3,98.8c-0.6,1-1.6,1.6-2.8,1.6H98.8c-1.1,0-2.2-0.6-2.8-1.6L84.7,79.6
	c-0.6-1-0.6-2.2,0-3.2L96,56.7c0.6-1,1.6-1.6,2.8-1.6h22.7c1.1,0,2.2,0.6,2.8,1.6l11.3,19.4c0.6,1,0.6,2.2,0,3.2
	C135.6,79.3,124.3,98.8,124.3,98.8z"/>
<g class="st1">
	<path class="st2" d="M203.7,118.9V17.1h20.9v84.5h54.8V119L203.7,118.9L203.7,118.9z"/>
	<path class="st2" d="M352.2,120.3c-6.5,0-12.3-1.1-17.4-3.2s-9.5-4.9-13.1-8.5s-6.3-7.7-8.3-12.4c-1.9-4.7-2.9-9.6-2.9-14.8
		c0-5.3,1-10.2,2.9-14.9s4.7-8.8,8.3-12.4c3.6-3.6,8-6.4,13.1-8.5s11-3.2,17.4-3.2c6.5,0,12.2,1.1,17.3,3.2c5.1,2.1,9.4,4.9,13,8.5
		s6.3,7.7,8.3,12.4c1.9,4.7,2.9,9.7,2.9,14.9c0,5.2-1,10.1-2.9,14.8c-1.9,4.7-4.6,8.8-8.2,12.4c-3.5,3.6-7.9,6.4-13,8.5
		C364.5,119.3,358.7,120.3,352.2,120.3z M331.5,81.5c0,3.3,0.5,6.4,1.6,9.1s2.5,5.1,4.4,7.1s4.1,3.6,6.6,4.7s5.2,1.6,8.2,1.6
		c2.9,0,5.7-0.5,8.2-1.6s4.7-2.7,6.6-4.7s3.3-4.4,4.4-7.2c1.1-2.8,1.6-5.8,1.6-9.2c0-3.2-0.5-6.3-1.6-9c-1.1-2.8-2.5-5.2-4.4-7.2
		s-4.1-3.6-6.6-4.7c-2.5-1.1-5.2-1.6-8.2-1.6c-2.9,0-5.7,0.6-8.2,1.7c-2.5,1.1-4.7,2.7-6.6,4.7c-1.9,2-3.3,4.4-4.4,7.2
		S331.5,78.2,331.5,81.5z"/>
	<path class="st2" d="M463.8,119.3c-5.4,0-10.2-1-14.5-3s-8.1-4.8-11.3-8.2c-3.2-3.5-5.6-7.5-7.3-12.1c-1.7-4.6-2.6-9.5-2.6-14.6
		c0-5.5,0.9-10.5,2.7-15.2c1.8-4.7,4.3-8.8,7.6-12.3c3.2-3.5,7.1-6.3,11.7-8.3c4.5-2,9.5-3,15-3c6.2,0,11.6,1.3,16.2,3.9
		c4.6,2.6,8.5,6.1,11.5,10.5V43.7h17.7v71.6c0,5.5-1.1,10.5-3.3,14.9c-2.2,4.4-5.3,8.1-9.2,11.2c-3.9,3.1-8.5,5.4-13.9,7
		s-11.3,2.4-17.6,2.4c-8.7,0-16-1.4-21.9-4.1c-5.9-2.7-11-6.6-15.2-11.5l11.1-10.2c3,3.5,6.8,6.3,11.4,8.3s9.5,3,14.6,3
		c3.1,0,6.1-0.4,9-1.2s5.4-2.1,7.6-3.8s4-3.9,5.2-6.6c1.3-2.7,1.9-5.8,1.9-9.5v-9.5c-2.6,4.3-6.3,7.6-11.1,10
		C474.4,118.2,469.3,119.3,463.8,119.3z M470.6,104c2.2,0,4.3-0.3,6.4-1c2-0.7,3.9-1.6,5.6-2.7s3.2-2.5,4.5-4s2.3-3.2,3-4.9v-18
		c-1.8-4.4-4.7-7.9-8.6-10.6c-3.9-2.7-8-4-12.2-4c-3.1,0-6,0.6-8.5,1.9c-2.5,1.3-4.7,3-6.5,5.2s-3.2,4.6-4.2,7.4s-1.4,5.6-1.4,8.6
		c0,3.1,0.6,5.9,1.7,8.6s2.7,5,4.6,7c2,2,4.3,3.6,6.9,4.7C464.6,103.4,467.5,104,470.6,104z"/>
	<path class="st2" d="M590.9,120.3c-6.5,0-12.3-1.1-17.4-3.2c-5.1-2.1-9.5-4.9-13.1-8.5s-6.3-7.7-8.3-12.4
		c-1.9-4.7-2.9-9.6-2.9-14.8c0-5.3,1-10.2,2.9-14.9s4.7-8.8,8.3-12.4c3.6-3.6,8-6.4,13.1-8.5s11-3.2,17.4-3.2
		c6.5,0,12.2,1.1,17.3,3.2c5.1,2.1,9.4,4.9,13,8.5s6.3,7.7,8.3,12.4c1.9,4.7,2.9,9.7,2.9,14.9c0,5.2-1,10.1-2.9,14.8
		c-1.9,4.7-4.6,8.8-8.2,12.4c-3.5,3.6-7.9,6.4-13,8.5C603.1,119.3,597.3,120.3,590.9,120.3z M570.1,81.5c0,3.3,0.5,6.4,1.6,9.1
		s2.5,5.1,4.4,7.1s4.1,3.6,6.6,4.7s5.2,1.6,8.2,1.6c2.9,0,5.7-0.5,8.2-1.6s4.7-2.7,6.6-4.7c1.9-2,3.3-4.4,4.4-7.2
		c1.1-2.8,1.6-5.8,1.6-9.2c0-3.2-0.5-6.3-1.6-9c-1.1-2.8-2.5-5.2-4.4-7.2s-4.1-3.6-6.6-4.7c-2.5-1.1-5.2-1.6-8.2-1.6
		c-2.9,0-5.7,0.6-8.2,1.7c-2.5,1.1-4.7,2.7-6.6,4.7c-1.9,2-3.3,4.4-4.4,7.2C570.6,75.2,570.1,78.2,570.1,81.5z"/>
</g>
<g id="P7uwHM.tif">
	
		<image style="overflow:visible;" width="709" height="162" id="Layer_1_1_" xlink:href="8C3009F0AA552A.png"  transform="matrix(0.5 0 0 0.5 104.75 37.25)">
	</image>
</g>
</svg>
